<?xml version="1.0" encoding="utf-8"?>
<!-- Generator: Adobe Illustrator 21.1.0, SVG Export Plug-In . SVG Version: 6.00 Build 0)  -->
<svg version="1.1" id="Layer_1" xmlns="http://www.w3.org/2000/svg" xmlns:xlink="http://www.w3.org/1999/xlink" x="0px" y="0px"
	 viewBox="0 0 226.4 226" style="enable-background:new 0 0 226.4 226;" xml:space="preserve">
<style type="text/css">
	.st0{fill:#E8E8E8;}
	.st1{fill:#C59B2D;}
	.st2{enable-background:new    ;}
	.st3{fill:#C6C6C6;}
	.st4{font-family:'PlayfairDisplay-Regular';}
	.st5{font-size:22.75px;}
</style>
<title>chart</title>
<path class="st0" d="M-149.3-26.9l-90.8-66V19.4C-203,19.3-171.3,3.2-149.3-26.9z"/>
<path class="st1" d="M-127.7-93.3c0-62.2-50.3-112.6-112.5-112.7v112.6l91.1,66.2C-134.5-47.4-127.7-68.5-127.7-93.3z"/>
<path d="M-149.3-27.3L-149.3-27.3 M-240.4-206.1h-0.5c-62.3,0-112.7,50.5-112.7,112.7s50.5,112.7,112.7,112.7h0.5"/>
<text transform="matrix(1 0 0 1 -202.9601 -124.9443)" class="st0 st4 st5">35%</text>
<text transform="matrix(1 0 0 1 -224.6301 -17.9444)" class="st4 st5">1</text>
<text transform="matrix(1 0 0 1 -216.4901 -17.9444)" class="st4 st5">5%</text>
<g>
	<path d="M113,113v113C50.6,226,0,175.4,0,113C0,50.6,50.6,0,113,0V113z"/>
	<path class="st0" d="M113,113l91.4,66.4c-22,30.3-54,46.6-91.4,46.6V113z"/>
	<path class="st3" d="M113,113l91.4-66.4c29.3,40.4,29.3,92.4,0,132.8L113,113z"/>
	<path class="st1" d="M113,113V0c37.4,0,69.4,16.3,91.4,46.6L113,113z"/>
</g>
<text transform="matrix(1 0 0 1 42.3699 119.3857)" class="st0 st4 st5">50%</text>
<text transform="matrix(1 0 0 1 127.3699 52.4906)" class="st0 st4 st5">15%</text>
<text transform="matrix(1 0 0 1 176.6847 121.4906)" class="st0 st4 st5">15%</text>
<text transform="matrix(1 0 0 1 128.6847 195.4906)" class="st4 st5">20%</text>
</svg>
