<?xml version="1.0" encoding="utf-8"?>
<!-- Generator: Adobe Illustrator 15.1.0, SVG Export Plug-In . SVG Version: 6.00 Build 0)  -->
<!DOCTYPE svg PUBLIC "-//W3C//DTD SVG 1.1//EN" "http://www.w3.org/Graphics/SVG/1.1/DTD/svg11.dtd">
<svg version="1.1" id="Layer_1" xmlns="http://www.w3.org/2000/svg" xmlns:xlink="http://www.w3.org/1999/xlink" x="0px" y="0px"
	 width="96px" height="96px" viewBox="0 0 96 96" enable-background="new 0 0 96 96" xml:space="preserve">
<g>
	<g>
		<path fill="#C69C2B" d="M48.052,48V0.166C74.47,0.166,95.886,21.581,95.886,48c0,26.417-21.416,47.833-47.834,47.833
			c-10.568,0-19.565-2.925-28.116-9.136L48.052,48z"/>
	</g>
</g>
<g>
	<path fill="#EDBA48" d="M48.052,48L2.559,33.219c6.53-20.1,24.359-33.053,45.493-33.053V48z"/>
</g>
<path fill="#BC8815" d="M48.052,48L19.936,86.697C2.839,74.276-3.972,53.318,2.559,33.219L48.052,48z"/>
<title>chart</title>
<text transform="matrix(1 0 0 1 18.6025 22.4165)" enable-background="new    "><tspan x="0" y="0" fill="#FFFFFF" font-family="'JosefinSans'" font-size="6">Pre-initial </tspan><tspan x="0" y="7.2" fill="#FFFFFF" font-family="'JosefinSans'" font-size="6">token sales</tspan></text>
<text transform="matrix(1 0 0 1 55.9355 44.9673)" enable-background="new    "><tspan x="0" y="0" fill="#FFFFFF" font-family="'JosefinSans'" font-size="6">Initial</tspan><tspan x="0" y="7.2" fill="#FFFFFF" font-family="'JosefinSans'" font-size="6">token sales</tspan></text>
<text transform="matrix(1 0 0 1 6.8926 52.6338)" enable-background="new    "><tspan x="0" y="0" fill="#FFFFFF" font-family="'JosefinSans'" font-size="6">2nd offering</tspan><tspan x="0" y="7.2" fill="#FFFFFF" font-family="'JosefinSans'" font-size="6">in 2018</tspan></text>
<g>
	<g>
	</g>
	<g>
		<g>
		</g>
	</g>
</g>
<g>
	<g>
	</g>
	<g>
	</g>
	<g>
	</g>
</g>
</svg>
