<svg id="Layer_1" data-name="Layer 1" xmlns="http://www.w3.org/2000/svg" viewBox="0 0 84.25 159"><defs><style>.cls-1{fill:#fff;}.cls-2{fill:#fe7d13;}.cls-3{fill:#febe8a;}.cls-4{fill:#fefefe;}</style></defs><title>iphone</title><rect class="cls-1" x="0.5" y="0.5" width="83.25" height="158" rx="9.45" ry="9.45"/><path d="M74.3,159H9.95A10,10,0,0,1,0,149.05V9.95A10,10,0,0,1,9.95,0H74.3a10,10,0,0,1,9.95,9.95V149.05A10,10,0,0,1,74.3,159ZM9.95,1A9,9,0,0,0,1,9.95V149.05A9,9,0,0,0,9.95,158H74.3a9,9,0,0,0,8.95-8.95V9.95A9,9,0,0,0,74.3,1Z"/><rect class="cls-1" x="6.2" y="12.5" width="71.86" height="122" rx="4.23" ry="4.23"/><path d="M73.83,135H10.42a4.73,4.73,0,0,1-4.73-4.73V16.73A4.73,4.73,0,0,1,10.42,12h63.4a4.73,4.73,0,0,1,4.73,4.73V130.27A4.73,4.73,0,0,1,73.83,135ZM10.42,13A3.73,3.73,0,0,0,6.7,16.73V130.27A3.73,3.73,0,0,0,10.42,134h63.4a3.73,3.73,0,0,0,3.73-3.73V16.73A3.73,3.73,0,0,0,73.83,13Z"/><circle class="cls-1" cx="42.12" cy="146.5" r="7"/><path d="M42.13,154a7.5,7.5,0,1,1,7.5-7.5A7.51,7.51,0,0,1,42.13,154Zm0-14a6.5,6.5,0,1,0,6.5,6.5A6.51,6.51,0,0,0,42.13,140Z"/><path class="cls-2" d="M21.12,73.31c.66-.59.5-1.46.66-2.19A20.94,20.94,0,1,1,44.9,96.55C34.21,98.12,24,90.76,21.66,79.81c-.12-.56.12-1.29-.54-1.69v-.69a6.86,6.86,0,0,0,0-3.43Z"/><path class="cls-3" d="M21.12,74a3.85,3.85,0,0,1,0,3.43Z"/><path class="cls-4" d="M55.13,84.28c-.64,0-1,.07-1.42.07H29.29l12.88-24Z"/><path class="cls-4" d="M59.12,86.3,42.61,55.88c7.41.48,13,3.6,16.65,9.77C63.22,72.34,63,79.16,59.12,86.3Z"/><path class="cls-4" d="M41.74,55.83,25.37,86.26C21.83,80,21.31,73.8,24.21,67.54,27.57,60.28,33.5,56.58,41.74,55.83Z"/><path class="cls-4" d="M25.87,87H58.55c-3.86,5.27-8.82,8.13-15.06,8.51C36.26,96,30.49,93.06,25.87,87Z"/></svg>