<svg id="Layer_1" data-name="Layer 1" xmlns="http://www.w3.org/2000/svg" xmlns:xlink="http://www.w3.org/1999/xlink" viewBox="0 0 77.19 159"><defs><style>.cls-1{fill:#fefefe;}.cls-2{fill:#c6b798;}.cls-3{fill:url(#未命名的渐变_6);}.cls-4{fill:url(#未命名的渐变_309);}.cls-5{fill:url(#未命名的渐变_309-2);}.cls-6{fill:url(#未命名的渐变_308);}.cls-7{fill:url(#未命名的渐变_279);}.cls-8{fill:url(#未命名的渐变_343);}.cls-9{fill:url(#未命名的渐变_313);}.cls-10{fill:url(#未命名的渐变_285);}.cls-11{fill:url(#未命名的渐变_485);}.cls-12{fill:url(#未命名的渐变_485-2);}.cls-13{fill:url(#未命名的渐变_429);}.cls-14{fill:#ff7d13;}.cls-15{fill:#999;}</style><linearGradient id="未命名的渐变_6" x1="38.59" y1="139.08" x2="38.59" y2="18.72" gradientUnits="userSpaceOnUse"><stop offset="0" stop-color="#00004a"/><stop offset="0.28" stop-color="#000045"/><stop offset="0.59" stop-color="#000038"/><stop offset="0.93" stop-color="#000021"/><stop offset="1" stop-color="#00001b"/></linearGradient><radialGradient id="未命名的渐变_309" cx="38.59" cy="46.81" r="34.34" gradientUnits="userSpaceOnUse"><stop offset="0" stop-color="#840300"/><stop offset="0.08" stop-color="#911303"/><stop offset="0.39" stop-color="#be490e"/><stop offset="0.66" stop-color="#df7116"/><stop offset="0.87" stop-color="#f4891b"/><stop offset="1" stop-color="#fb921d"/></radialGradient><radialGradient id="未命名的渐变_309-2" cx="38.41" cy="46.93" r="34" xlink:href="#未命名的渐变_309"/><radialGradient id="未命名的渐变_308" cx="38.56" cy="81.16" r="11.97" gradientUnits="userSpaceOnUse"><stop offset="0" stop-color="#fb921d"/><stop offset="0.13" stop-color="#f4891b"/><stop offset="0.34" stop-color="#df7116"/><stop offset="0.61" stop-color="#be490e"/><stop offset="0.92" stop-color="#911303"/><stop offset="1" stop-color="#840300"/></radialGradient><linearGradient id="未命名的渐变_279" x1="5566.23" y1="-1793.31" x2="5598.27" y2="-1793.31" gradientTransform="translate(5620.85 -1715.58) rotate(180)" gradientUnits="userSpaceOnUse"><stop offset="0" stop-color="#c94004"/><stop offset="0.52" stop-color="#8a0d00"/><stop offset="1" stop-color="#c94004"/></linearGradient><linearGradient id="未命名的渐变_343" x1="38.59" y1="78.8" x2="38.59" y2="44.83" gradientUnits="userSpaceOnUse"><stop offset="0" stop-color="#e56e00"/><stop offset="1" stop-color="#f9a22f"/></linearGradient><linearGradient id="未命名的渐变_313" x1="38.59" y1="74.99" x2="38.59" y2="51.16" gradientUnits="userSpaceOnUse"><stop offset="0" stop-color="#c94004"/><stop offset="1" stop-color="#8a0d00"/></linearGradient><linearGradient id="未命名的渐变_285" x1="38.59" y1="86.63" x2="38.59" y2="46.03" gradientUnits="userSpaceOnUse"><stop offset="0" stop-color="#fd6419"/><stop offset="0.09" stop-color="#fd6f1d"/><stop offset="0.53" stop-color="#fda632"/><stop offset="1" stop-color="#f8be6c"/></linearGradient><linearGradient id="未命名的渐变_485" x1="34.19" y1="44.94" x2="18.31" y2="74.57" gradientUnits="userSpaceOnUse"><stop offset="0" stop-color="#fecb7a"/><stop offset="0.37" stop-color="#feb358"/><stop offset="0.77" stop-color="#fd9d38"/><stop offset="1" stop-color="#fd952c"/></linearGradient><linearGradient id="未命名的渐变_485-2" x1="5554.17" y1="44.94" x2="5538.29" y2="74.57" gradientTransform="matrix(-1, 0, 0, 1, 5597.01, 0)" xlink:href="#未命名的渐变_485"/><linearGradient id="未命名的渐变_429" x1="23.92" y1="77.14" x2="53.27" y2="77.14" gradientUnits="userSpaceOnUse"><stop offset="0" stop-color="#fd952c"/><stop offset="0.08" stop-color="#fd9c38"/><stop offset="0.22" stop-color="#feaf58"/><stop offset="0.4" stop-color="#fece8c"/><stop offset="0.53" stop-color="#ffe5b3"/><stop offset="1" stop-color="#fd962d"/></linearGradient></defs><title>iphone</title><rect class="cls-1" x="0.5" y="0.5" width="76.19" height="158" rx="12.86" ry="12.86"/><path class="cls-2" d="M63.82,1A12.38,12.38,0,0,1,76.19,13.36V145.64A12.38,12.38,0,0,1,63.82,158H13.36A12.38,12.38,0,0,1,1,145.64V13.36A12.38,12.38,0,0,1,13.36,1H63.82m0-1H13.36A13.36,13.36,0,0,0,0,13.36V145.64A13.36,13.36,0,0,0,13.36,159H63.82a13.36,13.36,0,0,0,13.36-13.36V13.36A13.36,13.36,0,0,0,63.82,0Z"/><rect class="cls-3" x="4.21" y="18.72" width="68.77" height="120.36"/><path class="cls-4" d="M38.59,46.84h-.06v.93h.06A18.57,18.57,0,0,1,54.06,76.6l.77.51A19.48,19.48,0,0,0,38.59,46.84Z"/><path class="cls-5" d="M20,66.33A18.56,18.56,0,0,1,38.53,47.77v-.93A19.48,19.48,0,0,0,22.28,77l.79-.48A18.43,18.43,0,0,1,20,66.33Z"/><path class="cls-6" d="M51.72,79.45a18.56,18.56,0,0,1-26.24,0,18.73,18.73,0,0,1-2.4-2.95l-.79.48a19.48,19.48,0,0,0,32.54.12l-.77-.51A18.74,18.74,0,0,1,51.72,79.45Z"/><polygon class="cls-7" points="24.42 78.31 24.48 78.31 52.77 78.31 54.62 77.14 22.58 77.14 24.42 78.31"/><polygon class="cls-8" points="40.19 47.84 38.53 46.76 36.85 47.85 22.21 75.06 22.24 77.6 22.34 77.55 38.52 47.49 38.52 47.49 54.97 77.55 54.97 77.56 54.97 75.08 40.19 47.84"/><polygon class="cls-9" points="38.52 47.62 22.98 76.52 25.46 76.52 25.86 75.77 26.66 74.31 38.53 52.26 50.47 74.31 51.66 76.52 54.2 76.52 38.52 47.62"/><path class="cls-10" d="M38.59,46a20.3,20.3,0,1,0,20.3,20.3A20.3,20.3,0,0,0,38.59,46Zm0,39.64A19.21,19.21,0,0,1,24.92,80a19.54,19.54,0,0,1-2.37-2.87H54.63A19.53,19.53,0,0,1,52.27,80,19.21,19.21,0,0,1,38.59,85.67Zm12.7-10.88H25.88L38.53,51.28ZM38.88,47A19.33,19.33,0,0,1,55,76.63Zm-.72,0L22.23,76.63A19.33,19.33,0,0,1,38.17,47Z"/><path class="cls-11" d="M24.9,52.64a19.22,19.22,0,0,1,13.25-5.71h.12l-.06.1L30.29,61.87l-2,3.7-2,3.69c-1.35,2.46-2.69,4.92-4.06,7.37h0c1.29-2.49,2.6-5,3.91-7.44l2-3.72,2-3.7,8-14.79.06.1a19.18,19.18,0,0,0-13.24,5.59Z"/><path class="cls-12" d="M52.14,52.64a19.22,19.22,0,0,0-13.25-5.71h-.12l.06.1,7.92,14.84,2,3.7,2,3.69c1.35,2.46,2.69,4.92,4.06,7.37h0c-1.29-2.49-2.6-5-3.91-7.44l-2-3.72-2-3.7L38.94,47l-.06.1a19.18,19.18,0,0,1,13.24,5.59Z"/><polygon class="cls-13" points="23.92 77.14 38.59 77.08 53.27 77.14 38.59 77.2 23.92 77.14"/><path class="cls-14" d="M29,98.85A.36.36,0,0,1,29,99a.87.87,0,0,1-.16.36,1.44,1.44,0,0,1-.46.49.83.83,0,0,1-.44.1.88.88,0,0,1-.72-.3A1.26,1.26,0,0,1,27,99l-.75.52a3.08,3.08,0,0,1-.6.29,3.22,3.22,0,0,1-.8.09.71.71,0,0,1-.54-.2.73.73,0,0,1-.2-.53,1.84,1.84,0,0,1,.57-1.11A4.16,4.16,0,0,1,26.23,97l.84-.37q0-.22,0-.48A2,2,0,0,0,26.84,95a.82.82,0,0,0-.68-.3,1.27,1.27,0,0,0-.87.36,1.6,1.6,0,0,0-.38.86,1.43,1.43,0,0,1-.15.38.93.93,0,0,1-.46.19A.45.45,0,0,1,24,96.4a.13.13,0,0,1-.07-.11,2.32,2.32,0,0,1,.37-.79,2.46,2.46,0,0,1,.94-.92,2.15,2.15,0,0,1,1-.31,2.63,2.63,0,0,1,.86.1,1.24,1.24,0,0,1,.76.94q0,.15,0,1.05l0,1.07v.78q0,.15,0,.26t0,.29a.5.5,0,0,0,.13.36.4.4,0,0,0,.3.13.52.52,0,0,0,.44-.26l.08-.11Zm-2-.19q0-.85,0-1.2,0-.18,0-.49a4.61,4.61,0,0,0-1,.49,2.83,2.83,0,0,0-.8.76,1,1,0,0,0-.21.58.59.59,0,0,0,.18.44.61.61,0,0,0,.45.17,1.17,1.17,0,0,0,.5-.15A3.36,3.36,0,0,0,27,98.65Z"/><path class="cls-14" d="M34,94.88V92.42a1.45,1.45,0,0,0-.13-.79,1.72,1.72,0,0,0-.78-.34l-.15,0v-.07a.9.9,0,0,1,0-.15,7.27,7.27,0,0,0,1.57-.32h.34q0,.46,0,1l0,2.59,0,2.91,0,1.55q0,.48.07.54a.9.9,0,0,0,.59.14h.25v.12a.83.83,0,0,1,0,.1l-.43.09-1,.19L34,100v-.64l-.35.13a5,5,0,0,1-1.92.44,2,2,0,0,1-1.08-.35,2.26,2.26,0,0,1-.84-1,2.9,2.9,0,0,1-.29-1.26,3.17,3.17,0,0,1,.19-1.1,2.67,2.67,0,0,1,.51-.88,2.47,2.47,0,0,1,.57-.45,2.35,2.35,0,0,1,.61-.29,4,4,0,0,1,.8-.15,3.56,3.56,0,0,1,1.49.27ZM34,99q0-.45,0-1.85a6,6,0,0,0-.11-1.5,1.25,1.25,0,0,0-.55-.59,1.81,1.81,0,0,0-1-.28,1.68,1.68,0,0,0-1.3.6,2.58,2.58,0,0,0-.53,1.77,2.29,2.29,0,0,0,.58,1.64,1.9,1.9,0,0,0,1.44.61,2.86,2.86,0,0,0,.9-.13A1.64,1.64,0,0,0,34,99Z"/><path class="cls-14" d="M36.34,95v-.2l.47-.15a2.19,2.19,0,0,0,.51-.33,2.28,2.28,0,0,0,.45-.5H38q0,.32,0,.47s0,.12,0,.3v2.29l0,2a.5.5,0,0,0,.08.35,1.3,1.3,0,0,0,.52.22l.4.13a.21.21,0,0,1,0,.08.22.22,0,0,1,0,.1l-.67,0-.74,0-1.07,0-.39,0-.11,0a.15.15,0,0,1,0-.08q0-.09.13-.15l.68-.15a.43.43,0,0,0,.28-.13.71.71,0,0,0,.11-.45q0-.52,0-2.83a2.38,2.38,0,0,0,0-.58A.51.51,0,0,0,37,95.2,2,2,0,0,0,36.34,95Zm.56-3.48a.51.51,0,0,1,.17-.38.58.58,0,0,1,.41-.16.61.61,0,0,1,.44.18.54.54,0,0,1,.19.39.55.55,0,0,1-.19.39.6.6,0,0,1-.44.18.56.56,0,0,1-.42-.17A.59.59,0,0,1,36.9,91.51Z"/><path class="cls-14" d="M41,93.13h.21l0,.64v.83h.16l.66,0,.6,0h.4q0,.13,0,.21a1.48,1.48,0,0,1,0,.28h-.11l-1,0h-.64a1.28,1.28,0,0,0-.05.39l0,1v1.77a1.62,1.62,0,0,0,.18.93.61.61,0,0,0,.52.23,3.7,3.7,0,0,0,.66-.11,1.17,1.17,0,0,0,.4-.22H43a.13.13,0,0,1,.13.13v0a1.74,1.74,0,0,1-.66.46,2.78,2.78,0,0,1-1,.14,1.22,1.22,0,0,1-.72-.2.89.89,0,0,1-.36-.48,5.47,5.47,0,0,1-.08-1.2l0-1.51v-1q0-.19,0-.38h-.11l-.55,0h-.05a.16.16,0,0,1-.11,0,.1.1,0,0,1,0-.08.18.18,0,0,1,.05-.13,1.24,1.24,0,0,1,.3-.16,1.58,1.58,0,0,0,.41-.28,2.2,2.2,0,0,0,.39-.45,4,4,0,0,0,.23-.51Q41,93.24,41,93.13Z"/><path class="cls-14" d="M43.31,94.49h1.75v.13q0,.95,0,1.83,0,.52,0,.6a8.1,8.1,0,0,0,.08,1.48.78.78,0,0,0,.36.47,1.27,1.27,0,0,0,.69.18,2.22,2.22,0,0,0,.94-.2,2.83,2.83,0,0,0,.76-.5,4.36,4.36,0,0,0,0-.56q0-1,0-1.35t0-.36A3.48,3.48,0,0,0,47.8,95q-.11-.14-.82-.21l-.34,0a.29.29,0,0,1-.05-.13l0-.07.34,0h1.81V95q0,1-.05,2.52v.54l0,.91a.29.29,0,0,0,.11.13,1,1,0,0,0,.33,0h.06l.5,0q0,.09,0,.13v.07a12.67,12.67,0,0,0-1.45.39l-.37.11q0-.23,0-.29V99s0-.08,0-.18l-.2.15a6.18,6.18,0,0,1-1.12.69,1.72,1.72,0,0,1-.76.19,1.43,1.43,0,0,1-1.14-.52,2.76,2.76,0,0,1-.45-1.79s0-.13,0-.24,0-.36,0-.45,0-.13,0-.3,0-.13,0-.19,0-.13,0-.27,0-.24,0-.3,0-.14,0-.2v-.54a.25.25,0,0,0-.11-.19l-.55-.13a.94.94,0,0,1-.23-.06Z"/><path class="cls-14" d="M50.77,98.05a5,5,0,0,0,.37.83,1.9,1.9,0,0,0,.61.59,1.48,1.48,0,0,0,.77.21,1.15,1.15,0,0,0,.76-.33.77.77,0,0,0,.27-.58,1.22,1.22,0,0,0-.31-.81,3,3,0,0,0-1.2-.69,2.79,2.79,0,0,1-1.18-.71,1.34,1.34,0,0,1-.3-.86,1.36,1.36,0,0,1,.25-.81,1.52,1.52,0,0,1,.68-.53,2.14,2.14,0,0,1,.8-.18,4.48,4.48,0,0,1,.85.07,2.18,2.18,0,0,1,.65.23q.05.34.09,1v.21h-.24a1.93,1.93,0,0,0-.61-.88,1.32,1.32,0,0,0-.81-.33.88.88,0,0,0-.65.25.86.86,0,0,0-.25.64.8.8,0,0,0,.2.54,2.67,2.67,0,0,0,.94.54,4.89,4.89,0,0,1,1.08.56,1.57,1.57,0,0,1,.5.63,1.77,1.77,0,0,1,.16.71,1.41,1.41,0,0,1-.3.87,1.63,1.63,0,0,1-.76.57,2.47,2.47,0,0,1-.82.16,3.84,3.84,0,0,1-1.57-.32.26.26,0,0,1-.07-.2s0-.11,0-.19q-.11-.91-.11-1.07a.13.13,0,0,1,0-.11A.34.34,0,0,1,50.77,98.05Z"/><rect class="cls-15" x="33.14" y="9.92" width="10.92" height="1.5" rx="0.75" ry="0.75"/><circle class="cls-1" cx="38.77" cy="148" r="5.83"/><path class="cls-2" d="M38.77,142.67A5.33,5.33,0,1,1,33.44,148a5.33,5.33,0,0,1,5.33-5.33m0-1A6.33,6.33,0,1,0,45.09,148a6.33,6.33,0,0,0-6.33-6.33Z"/></svg>