<svg id="Layer_1" data-name="Layer 1" xmlns="http://www.w3.org/2000/svg" viewBox="0 0 50 50"><defs><style>.cls-1{fill:none;}.cls-2{fill:#c49b2d;}</style></defs><title>ico</title><path class="cls-1" d="M6,25a42.55,42.55,0,0,0,7.82,7.25l2-2.73A10.15,10.15,0,0,1,26.66,14.95l.77-1A14.5,14.5,0,0,0,25,13.68C16.45,13.68,8.9,21.58,6,25Z"/><path class="cls-1" d="M41.53,0l-.14,0h.14Z"/><path class="cls-1" d="M43.81,1.33a2.65,2.65,0,0,1,.34,1A2.65,2.65,0,0,0,43.81,1.33Z"/><polygon class="cls-1" points="24.69 29.87 29.57 23.28 29.57 23.28 24.69 29.87"/><path class="cls-1" d="M20.38,23.42,22.16,21A4.9,4.9,0,0,0,20.38,23.42Z"/><path class="cls-1" d="M29.62,26.58,27.84,29A4.9,4.9,0,0,0,29.62,26.58Z"/><path class="cls-1" d="M35.2,25A10.14,10.14,0,0,1,23.34,35.05l-.77,1a14.5,14.5,0,0,0,2.43.23c8.55,0,16.1-7.9,19-11.32a42.55,42.55,0,0,0-7.82-7.25l-2,2.73A10.12,10.12,0,0,1,35.2,25Z"/><polygon class="cls-1" points="29.55 14.4 28.73 15.52 29.55 14.4 29.55 14.4"/><path class="cls-1" d="M37.64,12.38h0l6-8.13a2.65,2.65,0,0,0,.27-.46,2.66,2.66,0,0,1-.27.46Z"/><polygon class="cls-1" points="10.6 48.9 17.16 40.05 17.16 40.05 10.6 48.9"/><polygon class="cls-1" points="39.4 1.1 39.4 1.1 39.4 1.1 32.84 9.95 32.84 9.95 39.4 1.1"/><path class="cls-2" d="M49.5,23.46a47,47,0,0,0-10.19-10l-3.16,4.27A42.55,42.55,0,0,1,44,25C41.1,28.42,33.55,36.32,25,36.32a14.5,14.5,0,0,1-2.43-.23l-3.44,4.64a20.59,20.59,0,0,0,5.86.88c13.55,0,24.06-14.46,24.5-15.08A2.64,2.64,0,0,0,49.5,23.46Z"/><path class="cls-2" d="M6,25C8.9,21.58,16.45,13.68,25,13.68a14.5,14.5,0,0,1,2.42.23l3.44-4.64A20.59,20.59,0,0,0,25,8.38C11.45,8.38.94,22.84.5,23.46a2.65,2.65,0,0,0,0,3.09,47,47,0,0,0,10.19,10l3.16-4.27A42.55,42.55,0,0,1,6,25Z"/><path class="cls-2" d="M29.57,23.28h0L33,18.67l1.49-2,3.17-4.28h0l6-8.13a2.64,2.64,0,0,0-1-4L42.54.23,42.23.12l-.16,0-.32,0h-.35a2.65,2.65,0,0,0-.38,0l-.2.05-.34.12-.19.09A2.64,2.64,0,0,0,40,.56L39.8.67a2.64,2.64,0,0,0-.41.43h0L32.84,10h0l-3.3,4.45h0l-.82,1.11-3.42,4.62-4.88,6.59L17,31.33l-1.49,2-3.17,4.28-6,8.12A2.65,2.65,0,1,0,10.6,48.9l6.55-8.85h0l3.3-4.45.82-1.11,3.42-4.62Z"/><path class="cls-2" d="M14.8,25a10.12,10.12,0,0,0,1.07,4.52l4.52-6.1A4.9,4.9,0,0,1,22.16,21l4.5-6.08A10.14,10.14,0,0,0,14.8,25Z"/><path class="cls-2" d="M35.2,25a10.12,10.12,0,0,0-1.07-4.52l-4.51,6.1A4.9,4.9,0,0,1,27.84,29l-4.5,6.08A10.14,10.14,0,0,0,35.2,25Z"/></svg>