<svg id="Layer_1" data-name="Layer 1" xmlns="http://www.w3.org/2000/svg" viewBox="0 0 50 50"><defs><style>.cls-1{fill:none;}.cls-2{fill:#c49b2d;}</style></defs><title>ico</title><path class="cls-1" d="M40.81.13,41,.08Z"/><path class="cls-1" d="M42.23.12l.31.11Z"/><path class="cls-1" d="M41.53,0l-.14,0h.14Z"/><path class="cls-1" d="M41.74,0l.32,0Z"/><path class="cls-1" d="M39.8.67,40,.56Z"/><path class="cls-1" d="M40.28.34l.19-.09Z"/><path class="cls-1" d="M28.42,31.32a2.72,2.72,0,0,0,.86-2.13,2.94,2.94,0,0,0-.42-1.59l-3.33,4.5h.61A3.3,3.3,0,0,0,28.42,31.32Z"/><polygon class="cls-1" points="21.85 21.45 24.75 17.52 21.85 17.52 21.85 21.45"/><path class="cls-1" d="M8.47,50a2.67,2.67,0,0,0,.6-.07,2.67,2.67,0,0,1-.6.07Z"/><path class="cls-1" d="M6.2,25a18.71,18.71,0,0,0,4.23,11.87l7.15-9.66v-13h4.15V9.6a1.26,1.26,0,0,1,2.52,0v4.65h1.4V9.6a1.26,1.26,0,0,1,2.52,0v3.3L32.1,7.6A18.78,18.78,0,0,0,6.2,25Z"/><path class="cls-1" d="M32.33,26.36a5.23,5.23,0,0,1,1.26,3.46,4.92,4.92,0,0,1-1.88,4,7,7,0,0,1-3.53,1.43V40.4a1.26,1.26,0,0,1-2.52,0v-5h-1.4v5a1.26,1.26,0,0,1-2.52,0V37.23L17.9,42.4A18.78,18.78,0,0,0,39.57,13.14l-8.86,12A5,5,0,0,1,32.33,26.36Z"/><polygon class="cls-1" points="32.98 18.67 32.98 18.67 38.2 11.63 38.2 11.63 32.98 18.67"/><polygon class="cls-1" points="10.6 48.9 12.35 46.55 12.35 46.55 10.6 48.9"/><path class="cls-1" d="M41.91,6.61h0l1.74-2.36a2.65,2.65,0,0,0,.27-.46,2.66,2.66,0,0,1-.27.46Z"/><path class="cls-1" d="M42.68.29a2.65,2.65,0,0,1,.42.25A2.64,2.64,0,0,0,42.68.29Z"/><polygon class="cls-1" points="16.06 41.53 16.06 41.53 20.63 35.36 20.63 35.36 16.06 41.53"/><path class="cls-1" d="M43.81,1.33a2.65,2.65,0,0,1,.34,1A2.65,2.65,0,0,0,43.81,1.33Z"/><polygon class="cls-1" points="23.05 32.1 23.05 32.1 27.25 26.42 27.25 26.42 23.05 32.1"/><path class="cls-2" d="M26.91,8.34A1.26,1.26,0,0,0,25.65,9.6v4.65h-1.4V9.6a1.26,1.26,0,0,0-2.52,0v4.65H17.58v13l4.26-5.76V17.52h2.91l3.42-4.62V9.6A1.26,1.26,0,0,0,26.91,8.34Z"/><path class="cls-2" d="M23,41.66a1.26,1.26,0,0,0,1.26-1.26v-5h1.4v5a1.26,1.26,0,0,0,2.52,0V35.26a7,7,0,0,0,3.53-1.43,4.92,4.92,0,0,0,1.88-4,5.23,5.23,0,0,0-1.26-3.46,5,5,0,0,0-1.62-1.26l-1.85,2.5a2.94,2.94,0,0,1,.42,1.59,2.72,2.72,0,0,1-.86,2.13,3.3,3.3,0,0,1-2.28.77h-.61l-3.8,5.14V40.4A1.26,1.26,0,0,0,23,41.66Z"/><path class="cls-2" d="M43.34,8l-3.77,5.1A18.78,18.78,0,0,1,17.9,42.4l-3.78,5.11A25,25,0,0,0,43.34,8Z"/><path class="cls-2" d="M6.2,25A18.78,18.78,0,0,1,32.1,7.6l3.78-5.11A25,25,0,0,0,6.66,42l3.77-5.1A18.71,18.71,0,0,1,6.2,25Z"/><path class="cls-2" d="M16.06,41.53l4.57-6.17h0L23,32.1h0l4.2-5.68h0L33,18.67h0l5.21-7h0l3.72-5h0l1.74-2.36a2.64,2.64,0,0,0-1-4L42.54.23,42.23.12l-.16,0-.32,0h-.35a2.65,2.65,0,0,0-.38,0l-.2.05-.34.12-.19.09A2.64,2.64,0,0,0,40,.56L39.8.67a2.65,2.65,0,0,0-.41.43L6.34,45.75A2.65,2.65,0,1,0,10.6,48.9l1.74-2.35h0l3.71-5Z"/></svg>