<svg id="Layer_1" data-name="Layer 1" xmlns="http://www.w3.org/2000/svg" viewBox="0 0 50 50"><defs><style>.cls-1{fill:none;}.cls-2{fill:#c49b2d;}</style></defs><title>ico</title><path class="cls-1" d="M41.42,9.43a5.42,5.42,0,0,0-5.35-5.49H36a5.42,5.42,0,0,0-.07,10.84,5.42,5.42,0,0,0,5.49-5.35Z"/><path class="cls-1" d="M14,32.32a2,2,0,0,1-1.58.8h0a2,2,0,0,1-1.59-.84c-.32-.45-1.41-2-2.75-4.13a5.36,5.36,0,0,0-.59,2.34A5.43,5.43,0,0,0,12.82,36a5.41,5.41,0,0,0,4.54-8.46C15.73,30,14.37,31.82,14,32.32Z"/><path class="cls-1" d="M39.88,35.22h-.07a5.42,5.42,0,0,0-5.42,5.35h0a5.42,5.42,0,0,0,5.35,5.49h.07a5.42,5.42,0,0,0,.07-10.84Z"/><path class="cls-2" d="M41.06,31.37l-.35-13.92A9.36,9.36,0,0,0,36.13,0H36a9.37,9.37,0,0,0-9.36,9.24h0a9.32,9.32,0,0,0,2.1,6l-8.24,7.18c2.13-3.71,4-7.63,4-10.24A11.84,11.84,0,0,0,12.82.21h-.16A11.85,11.85,0,0,0,.83,11.9c0,3.12,2.46,8.22,5,12.55a9.31,9.31,0,0,0-2.28,6h0a9.37,9.37,0,0,0,9.24,9.48h.13a9.35,9.35,0,0,0,8.58-13.08l10.27-8.95.13-.14a9.29,9.29,0,0,0,4,1H36c.26,0,.53,0,.79,0l.33,13A9.35,9.35,0,0,0,39.69,50h.13a9.36,9.36,0,0,0,1.25-18.63ZM16.67,34.43A5.37,5.37,0,0,1,12.82,36a5.43,5.43,0,0,1-5.35-5.49,5.36,5.36,0,0,1,.59-2.34c1.35,2.11,2.43,3.68,2.75,4.13a2,2,0,0,0,1.59.84h0a2,2,0,0,0,1.58-.8c.37-.5,1.73-2.35,3.36-4.81a5.4,5.4,0,0,1-.69,6.92Zm-4.2-6.73C9,22.43,4.73,15,4.77,11.95a7.9,7.9,0,0,1,7.89-7.79h.11a7.9,7.9,0,0,1,7.79,8C20.53,15.18,16.08,22.52,12.46,27.7ZM35.93,14.78A5.42,5.42,0,0,1,36,3.94h.07a5.42,5.42,0,0,1,3.71,9.3A5.32,5.32,0,0,1,35.93,14.78Zm7.66,29.74a5.38,5.38,0,0,1-3.78,1.54h-.07a5.42,5.42,0,0,1-5.35-5.49h0a5.42,5.42,0,0,1,5.42-5.35h.07a5.42,5.42,0,0,1,3.71,9.3Z"/></svg>